<mxfile host="Electron" modified="2024-07-30T12:51:37.143Z" agent="Mozilla/5.0 (Macintosh; Intel Mac OS X 10_15_7) AppleWebKit/537.36 (KHTML, like Gecko) draw.io/24.6.4 Chrome/124.0.6367.207 Electron/30.0.6 Safari/537.36" etag="lZ7hMkcZpJj63iTXbe-t" version="24.6.4" type="device" pages="5">
  <diagram name="APM_Store" id="7UtnyfCaY_BS9jQqDRYv">
    <mxGraphModel dx="1414" dy="724" grid="1" gridSize="10" guides="1" tooltips="1" connect="1" arrows="1" fold="1" page="1" pageScale="1" pageWidth="827" pageHeight="1169" math="0" shadow="0">
      <root>
        <mxCell id="0" />
        <mxCell id="1" parent="0" />
        <mxCell id="4q3rnfwP7LxpbIJeWHaI-9" value="&lt;div&gt;Agent Store&lt;/div&gt;&lt;div&gt;public service&lt;/div&gt;" style="rounded=1;whiteSpace=wrap;html=1;verticalAlign=top;" vertex="1" parent="1">
          <mxGeometry x="80" y="40" width="340" height="520" as="geometry" />
        </mxCell>
        <mxCell id="4q3rnfwP7LxpbIJeWHaI-1" value="Agent Category&lt;div&gt;&lt;br&gt;&lt;/div&gt;" style="rounded=1;whiteSpace=wrap;html=1;" vertex="1" parent="1">
          <mxGeometry x="110" y="110" width="250" height="60" as="geometry" />
        </mxCell>
        <mxCell id="4q3rnfwP7LxpbIJeWHaI-2" value="&lt;div&gt;Search&lt;/div&gt;" style="rounded=1;whiteSpace=wrap;html=1;" vertex="1" parent="1">
          <mxGeometry x="110" y="180" width="250" height="60" as="geometry" />
        </mxCell>
        <mxCell id="4q3rnfwP7LxpbIJeWHaI-3" value="&lt;div&gt;Browse&lt;/div&gt;" style="rounded=1;whiteSpace=wrap;html=1;" vertex="1" parent="1">
          <mxGeometry x="110" y="260" width="250" height="60" as="geometry" />
        </mxCell>
        <mxCell id="4q3rnfwP7LxpbIJeWHaI-16" style="edgeStyle=orthogonalEdgeStyle;rounded=0;orthogonalLoop=1;jettySize=auto;html=1;entryX=0;entryY=0.5;entryDx=0;entryDy=0;" edge="1" parent="1" source="4q3rnfwP7LxpbIJeWHaI-4" target="4q3rnfwP7LxpbIJeWHaI-12">
          <mxGeometry relative="1" as="geometry" />
        </mxCell>
        <mxCell id="4q3rnfwP7LxpbIJeWHaI-17" value="apm install&amp;nbsp; B&lt;div&gt;apm install C&lt;/div&gt;&lt;div&gt;apm update B&lt;/div&gt;&lt;div&gt;apm update C&lt;/div&gt;" style="edgeLabel;html=1;align=center;verticalAlign=middle;resizable=0;points=[];" vertex="1" connectable="0" parent="4q3rnfwP7LxpbIJeWHaI-16">
          <mxGeometry x="0.23" y="-2" relative="1" as="geometry">
            <mxPoint x="1" y="1" as="offset" />
          </mxGeometry>
        </mxCell>
        <mxCell id="4q3rnfwP7LxpbIJeWHaI-4" value="&lt;div&gt;My Agents&lt;/div&gt;" style="rounded=1;whiteSpace=wrap;html=1;verticalAlign=top;" vertex="1" parent="1">
          <mxGeometry x="110" y="340" width="250" height="170" as="geometry" />
        </mxCell>
        <mxCell id="4q3rnfwP7LxpbIJeWHaI-5" value="A" style="ellipse;whiteSpace=wrap;html=1;aspect=fixed;" vertex="1" parent="1">
          <mxGeometry x="150" y="410" width="40" height="40" as="geometry" />
        </mxCell>
        <mxCell id="4q3rnfwP7LxpbIJeWHaI-6" value="B" style="ellipse;whiteSpace=wrap;html=1;aspect=fixed;fillColor=#fff2cc;strokeColor=#d6b656;" vertex="1" parent="1">
          <mxGeometry x="215" y="410" width="40" height="40" as="geometry" />
        </mxCell>
        <mxCell id="4q3rnfwP7LxpbIJeWHaI-7" value="C" style="ellipse;whiteSpace=wrap;html=1;aspect=fixed;fillColor=#dae8fc;strokeColor=#6c8ebf;" vertex="1" parent="1">
          <mxGeometry x="280" y="410" width="40" height="40" as="geometry" />
        </mxCell>
        <mxCell id="4q3rnfwP7LxpbIJeWHaI-8" value="&lt;div&gt;APM&lt;/div&gt;&lt;div&gt;on premise&lt;/div&gt;" style="rounded=1;whiteSpace=wrap;html=1;verticalAlign=top;" vertex="1" parent="1">
          <mxGeometry x="480" y="40" width="280" height="520" as="geometry" />
        </mxCell>
        <mxCell id="4q3rnfwP7LxpbIJeWHaI-10" style="edgeStyle=orthogonalEdgeStyle;rounded=0;orthogonalLoop=1;jettySize=auto;html=1;exitX=0.5;exitY=1;exitDx=0;exitDy=0;" edge="1" parent="1" source="4q3rnfwP7LxpbIJeWHaI-9" target="4q3rnfwP7LxpbIJeWHaI-9">
          <mxGeometry relative="1" as="geometry" />
        </mxCell>
        <mxCell id="4q3rnfwP7LxpbIJeWHaI-11" value="&lt;div&gt;CLI&lt;/div&gt;" style="rounded=1;whiteSpace=wrap;html=1;" vertex="1" parent="1">
          <mxGeometry x="495" y="100" width="250" height="40" as="geometry" />
        </mxCell>
        <mxCell id="4q3rnfwP7LxpbIJeWHaI-35" style="edgeStyle=orthogonalEdgeStyle;rounded=0;orthogonalLoop=1;jettySize=auto;html=1;" edge="1" parent="1" source="4q3rnfwP7LxpbIJeWHaI-12" target="4q3rnfwP7LxpbIJeWHaI-32">
          <mxGeometry relative="1" as="geometry">
            <Array as="points">
              <mxPoint x="990" y="290" />
            </Array>
          </mxGeometry>
        </mxCell>
        <mxCell id="4q3rnfwP7LxpbIJeWHaI-12" value="&lt;div&gt;Local Repository&lt;/div&gt;" style="rounded=1;whiteSpace=wrap;html=1;verticalAlign=top;" vertex="1" parent="1">
          <mxGeometry x="495" y="200" width="250" height="120" as="geometry" />
        </mxCell>
        <mxCell id="4q3rnfwP7LxpbIJeWHaI-13" value="B" style="ellipse;whiteSpace=wrap;html=1;aspect=fixed;fillColor=#fff2cc;strokeColor=#d6b656;" vertex="1" parent="1">
          <mxGeometry x="540" y="250" width="40" height="40" as="geometry" />
        </mxCell>
        <mxCell id="4q3rnfwP7LxpbIJeWHaI-14" value="C" style="ellipse;whiteSpace=wrap;html=1;aspect=fixed;fillColor=#dae8fc;strokeColor=#6c8ebf;" vertex="1" parent="1">
          <mxGeometry x="620" y="250" width="40" height="40" as="geometry" />
        </mxCell>
        <mxCell id="4q3rnfwP7LxpbIJeWHaI-26" style="edgeStyle=orthogonalEdgeStyle;rounded=0;orthogonalLoop=1;jettySize=auto;html=1;entryX=0.5;entryY=1;entryDx=0;entryDy=0;" edge="1" parent="1" source="4q3rnfwP7LxpbIJeWHaI-18" target="4q3rnfwP7LxpbIJeWHaI-12">
          <mxGeometry relative="1" as="geometry" />
        </mxCell>
        <mxCell id="4q3rnfwP7LxpbIJeWHaI-27" value="3. retrieve B" style="edgeLabel;html=1;align=center;verticalAlign=middle;resizable=0;points=[];" vertex="1" connectable="0" parent="4q3rnfwP7LxpbIJeWHaI-26">
          <mxGeometry x="-0.0222" relative="1" as="geometry">
            <mxPoint as="offset" />
          </mxGeometry>
        </mxCell>
        <mxCell id="4q3rnfwP7LxpbIJeWHaI-18" value="&lt;div&gt;Agent Service&lt;/div&gt;" style="rounded=1;whiteSpace=wrap;html=1;verticalAlign=top;" vertex="1" parent="1">
          <mxGeometry x="495" y="365" width="250" height="120" as="geometry" />
        </mxCell>
        <mxCell id="4q3rnfwP7LxpbIJeWHaI-21" value="&lt;div&gt;aiwork&lt;/div&gt;&lt;div&gt;on premise&lt;/div&gt;&lt;div&gt;&amp;amp;&lt;/div&gt;&lt;div&gt;public&lt;/div&gt;" style="rounded=1;whiteSpace=wrap;html=1;verticalAlign=top;" vertex="1" parent="1">
          <mxGeometry x="870" y="40" width="250" height="520" as="geometry" />
        </mxCell>
        <mxCell id="4q3rnfwP7LxpbIJeWHaI-24" style="edgeStyle=orthogonalEdgeStyle;rounded=0;orthogonalLoop=1;jettySize=auto;html=1;entryX=1;entryY=0.5;entryDx=0;entryDy=0;" edge="1" parent="1" source="4q3rnfwP7LxpbIJeWHaI-23" target="4q3rnfwP7LxpbIJeWHaI-18">
          <mxGeometry relative="1" as="geometry" />
        </mxCell>
        <mxCell id="4q3rnfwP7LxpbIJeWHaI-25" value="2. call agent B" style="edgeLabel;html=1;align=center;verticalAlign=middle;resizable=0;points=[];" vertex="1" connectable="0" parent="4q3rnfwP7LxpbIJeWHaI-24">
          <mxGeometry x="0.76" y="-1" relative="1" as="geometry">
            <mxPoint as="offset" />
          </mxGeometry>
        </mxCell>
        <mxCell id="4q3rnfwP7LxpbIJeWHaI-23" value="1. run agent node B" style="rounded=1;whiteSpace=wrap;html=1;" vertex="1" parent="1">
          <mxGeometry x="920" y="340" width="120" height="20" as="geometry" />
        </mxCell>
        <mxCell id="4q3rnfwP7LxpbIJeWHaI-28" value="B" style="ellipse;whiteSpace=wrap;html=1;aspect=fixed;fillColor=#fff2cc;strokeColor=#d6b656;strokeWidth=8;" vertex="1" parent="1">
          <mxGeometry x="600" y="420" width="40" height="40" as="geometry" />
        </mxCell>
        <mxCell id="rJMCee5m7fU3xKTIxVFQ-3" style="edgeStyle=orthogonalEdgeStyle;rounded=0;orthogonalLoop=1;jettySize=auto;html=1;entryX=1;entryY=0.75;entryDx=0;entryDy=0;" edge="1" parent="1" source="4q3rnfwP7LxpbIJeWHaI-29" target="4q3rnfwP7LxpbIJeWHaI-4">
          <mxGeometry relative="1" as="geometry" />
        </mxCell>
        <mxCell id="rJMCee5m7fU3xKTIxVFQ-4" value="4. status query" style="edgeLabel;html=1;align=center;verticalAlign=middle;resizable=0;points=[];" vertex="1" connectable="0" parent="rJMCee5m7fU3xKTIxVFQ-3">
          <mxGeometry x="0.1948" y="-1" relative="1" as="geometry">
            <mxPoint as="offset" />
          </mxGeometry>
        </mxCell>
        <mxCell id="4q3rnfwP7LxpbIJeWHaI-29" value="5. run B" style="text;html=1;align=center;verticalAlign=middle;whiteSpace=wrap;rounded=0;" vertex="1" parent="1">
          <mxGeometry x="530" y="430" width="60" height="30" as="geometry" />
        </mxCell>
        <mxCell id="4q3rnfwP7LxpbIJeWHaI-30" style="edgeStyle=orthogonalEdgeStyle;rounded=0;orthogonalLoop=1;jettySize=auto;html=1;entryX=0.608;entryY=0.95;entryDx=0;entryDy=0;entryPerimeter=0;" edge="1" parent="1" source="4q3rnfwP7LxpbIJeWHaI-18" target="4q3rnfwP7LxpbIJeWHaI-23">
          <mxGeometry relative="1" as="geometry">
            <Array as="points">
              <mxPoint x="620" y="530" />
              <mxPoint x="1003" y="530" />
            </Array>
          </mxGeometry>
        </mxCell>
        <mxCell id="4q3rnfwP7LxpbIJeWHaI-31" value="6. return" style="edgeLabel;html=1;align=center;verticalAlign=middle;resizable=0;points=[];" vertex="1" connectable="0" parent="4q3rnfwP7LxpbIJeWHaI-30">
          <mxGeometry x="-0.4136" y="4" relative="1" as="geometry">
            <mxPoint as="offset" />
          </mxGeometry>
        </mxCell>
        <mxCell id="4q3rnfwP7LxpbIJeWHaI-33" style="edgeStyle=orthogonalEdgeStyle;rounded=0;orthogonalLoop=1;jettySize=auto;html=1;entryX=1;entryY=0.5;entryDx=0;entryDy=0;" edge="1" parent="1" source="4q3rnfwP7LxpbIJeWHaI-32" target="4q3rnfwP7LxpbIJeWHaI-12">
          <mxGeometry relative="1" as="geometry" />
        </mxCell>
        <mxCell id="4q3rnfwP7LxpbIJeWHaI-34" value="查询" style="edgeLabel;html=1;align=center;verticalAlign=middle;resizable=0;points=[];" vertex="1" connectable="0" parent="4q3rnfwP7LxpbIJeWHaI-33">
          <mxGeometry y="4" relative="1" as="geometry">
            <mxPoint as="offset" />
          </mxGeometry>
        </mxCell>
        <mxCell id="4q3rnfwP7LxpbIJeWHaI-32" value="search agent" style="rounded=1;whiteSpace=wrap;html=1;" vertex="1" parent="1">
          <mxGeometry x="930" y="140" width="120" height="20" as="geometry" />
        </mxCell>
        <mxCell id="4q3rnfwP7LxpbIJeWHaI-36" value="&lt;div&gt;config (autoinstall?)&lt;/div&gt;" style="rounded=1;whiteSpace=wrap;html=1;" vertex="1" parent="1">
          <mxGeometry x="490" y="150" width="250" height="40" as="geometry" />
        </mxCell>
        <mxCell id="rJMCee5m7fU3xKTIxVFQ-2" value="&lt;h1 style=&quot;margin-top: 0px;&quot;&gt;CLI&lt;/h1&gt;&lt;p&gt;&lt;span style=&quot;text-wrap: nowrap;&quot;&gt;apm install&lt;/span&gt;&lt;/p&gt;&lt;p&gt;&lt;span style=&quot;text-wrap: nowrap; background-color: initial;&quot;&gt;apm update&lt;/span&gt;&lt;/p&gt;&lt;div style=&quot;text-wrap: nowrap;&quot;&gt;apm list&lt;/div&gt;&lt;div style=&quot;text-wrap: nowrap;&quot;&gt;apm remote-&lt;/div&gt;&lt;div style=&quot;text-wrap: nowrap;&quot;&gt;search&lt;/div&gt;&lt;div style=&quot;text-wrap: nowrap;&quot;&gt;apm remove&lt;/div&gt;" style="text;html=1;whiteSpace=wrap;overflow=hidden;rounded=0;align=left;" vertex="1" parent="1">
          <mxGeometry x="530" y="560" width="180" height="200" as="geometry" />
        </mxCell>
      </root>
    </mxGraphModel>
  </diagram>
  <diagram id="nmZ9yhJBbLRFmpL-VJeZ" name="Deployment View">
    <mxGraphModel dx="1434" dy="783" grid="1" gridSize="10" guides="1" tooltips="1" connect="1" arrows="1" fold="1" page="1" pageScale="1" pageWidth="827" pageHeight="1169" math="0" shadow="0">
      <root>
        <mxCell id="0" />
        <mxCell id="1" parent="0" />
        <mxCell id="z2vn191a3XBMlqwccCJb-3" value="on premise / docker" style="rounded=1;whiteSpace=wrap;html=1;fillColor=none;verticalAlign=top;" parent="1" vertex="1">
          <mxGeometry x="110" y="70" width="610" height="190" as="geometry" />
        </mxCell>
        <mxCell id="z2vn191a3XBMlqwccCJb-4" style="edgeStyle=orthogonalEdgeStyle;rounded=0;orthogonalLoop=1;jettySize=auto;html=1;entryX=0;entryY=0.5;entryDx=0;entryDy=0;startArrow=classic;startFill=1;" parent="1" source="z2vn191a3XBMlqwccCJb-1" target="z2vn191a3XBMlqwccCJb-2" edge="1">
          <mxGeometry relative="1" as="geometry" />
        </mxCell>
        <mxCell id="z2vn191a3XBMlqwccCJb-5" value="内网互通" style="edgeLabel;html=1;align=center;verticalAlign=middle;resizable=0;points=[];" parent="z2vn191a3XBMlqwccCJb-4" vertex="1" connectable="0">
          <mxGeometry x="-0.1167" y="2" relative="1" as="geometry">
            <mxPoint as="offset" />
          </mxGeometry>
        </mxCell>
        <mxCell id="z2vn191a3XBMlqwccCJb-1" value="APM" style="rounded=1;whiteSpace=wrap;html=1;" parent="1" vertex="1">
          <mxGeometry x="220" y="140" width="120" height="60" as="geometry" />
        </mxCell>
        <mxCell id="z2vn191a3XBMlqwccCJb-2" value="aiwork" style="rounded=1;whiteSpace=wrap;html=1;" parent="1" vertex="1">
          <mxGeometry x="460" y="140" width="120" height="60" as="geometry" />
        </mxCell>
        <mxCell id="z2vn191a3XBMlqwccCJb-6" value="Public Cloud Hosting/VPC/ docker" style="rounded=1;whiteSpace=wrap;html=1;fillColor=#fff2cc;verticalAlign=top;strokeColor=#d6b656;" parent="1" vertex="1">
          <mxGeometry x="840" y="310" width="610" height="190" as="geometry" />
        </mxCell>
        <mxCell id="z2vn191a3XBMlqwccCJb-7" style="edgeStyle=orthogonalEdgeStyle;rounded=0;orthogonalLoop=1;jettySize=auto;html=1;entryX=0;entryY=0.5;entryDx=0;entryDy=0;startArrow=classic;startFill=1;" parent="1" source="z2vn191a3XBMlqwccCJb-9" target="z2vn191a3XBMlqwccCJb-10" edge="1">
          <mxGeometry relative="1" as="geometry" />
        </mxCell>
        <mxCell id="z2vn191a3XBMlqwccCJb-8" value="内网互通" style="edgeLabel;html=1;align=center;verticalAlign=middle;resizable=0;points=[];" parent="z2vn191a3XBMlqwccCJb-7" vertex="1" connectable="0">
          <mxGeometry x="-0.1167" y="2" relative="1" as="geometry">
            <mxPoint as="offset" />
          </mxGeometry>
        </mxCell>
        <mxCell id="z2vn191a3XBMlqwccCJb-9" value="APM" style="rounded=1;whiteSpace=wrap;html=1;" parent="1" vertex="1">
          <mxGeometry x="950" y="380" width="120" height="60" as="geometry" />
        </mxCell>
        <mxCell id="z2vn191a3XBMlqwccCJb-10" value="aiwork" style="rounded=1;whiteSpace=wrap;html=1;" parent="1" vertex="1">
          <mxGeometry x="1190" y="380" width="120" height="60" as="geometry" />
        </mxCell>
        <mxCell id="z2vn191a3XBMlqwccCJb-11" value="onPremise / Public Cloud Hosting/VPC/ docker" style="rounded=1;whiteSpace=wrap;html=1;fillColor=none;verticalAlign=top;" parent="1" vertex="1">
          <mxGeometry x="100" y="640" width="610" height="190" as="geometry" />
        </mxCell>
        <mxCell id="z2vn191a3XBMlqwccCJb-14" value="APM" style="rounded=1;whiteSpace=wrap;html=1;" parent="1" vertex="1">
          <mxGeometry x="210" y="710" width="120" height="60" as="geometry" />
        </mxCell>
        <mxCell id="z2vn191a3XBMlqwccCJb-23" style="edgeStyle=orthogonalEdgeStyle;rounded=0;orthogonalLoop=1;jettySize=auto;html=1;entryX=1;entryY=0.5;entryDx=0;entryDy=0;" parent="1" source="z2vn191a3XBMlqwccCJb-15" target="z2vn191a3XBMlqwccCJb-21" edge="1">
          <mxGeometry relative="1" as="geometry" />
        </mxCell>
        <mxCell id="z2vn191a3XBMlqwccCJb-24" value="z" style="edgeStyle=orthogonalEdgeStyle;rounded=0;orthogonalLoop=1;jettySize=auto;html=1;entryX=1;entryY=0.5;entryDx=0;entryDy=0;" parent="1" source="z2vn191a3XBMlqwccCJb-15" target="z2vn191a3XBMlqwccCJb-14" edge="1">
          <mxGeometry relative="1" as="geometry" />
        </mxCell>
        <mxCell id="z2vn191a3XBMlqwccCJb-15" value="aiwork&lt;div&gt;public service&lt;/div&gt;&lt;div&gt;run by ai2nv&lt;/div&gt;" style="rounded=1;whiteSpace=wrap;html=1;" parent="1" vertex="1">
          <mxGeometry x="1300" y="740" width="120" height="60" as="geometry" />
        </mxCell>
        <mxCell id="z2vn191a3XBMlqwccCJb-16" value="Agent Store" style="rounded=1;whiteSpace=wrap;html=1;" parent="1" vertex="1">
          <mxGeometry x="910" y="140" width="120" height="60" as="geometry" />
        </mxCell>
        <mxCell id="z2vn191a3XBMlqwccCJb-17" value="" style="rounded=0;whiteSpace=wrap;html=1;fillColor=#330000;" parent="1" vertex="1">
          <mxGeometry x="770" y="20" width="10" height="850" as="geometry" />
        </mxCell>
        <mxCell id="z2vn191a3XBMlqwccCJb-18" value="Public Cloud Hosting/VPC/ docker" style="rounded=1;whiteSpace=wrap;html=1;fillColor=#fff2cc;verticalAlign=top;strokeColor=#d6b656;" parent="1" vertex="1">
          <mxGeometry x="840" y="510" width="330" height="160" as="geometry" />
        </mxCell>
        <mxCell id="z2vn191a3XBMlqwccCJb-21" value="APM" style="rounded=1;whiteSpace=wrap;html=1;" parent="1" vertex="1">
          <mxGeometry x="950" y="580" width="120" height="60" as="geometry" />
        </mxCell>
        <mxCell id="z2vn191a3XBMlqwccCJb-25" value="用户自己解决&lt;div&gt;aiwork&lt;/div&gt;&lt;div&gt;调用APM的网络访问问题&lt;/div&gt;" style="rounded=1;whiteSpace=wrap;html=1;" parent="1" vertex="1">
          <mxGeometry x="1121" y="740" width="120" height="60" as="geometry" />
        </mxCell>
      </root>
    </mxGraphModel>
  </diagram>
  <diagram id="lId8sQFbJDqAR8izIOTJ" name="第 3 页">
    <mxGraphModel dx="1026" dy="743" grid="1" gridSize="10" guides="1" tooltips="1" connect="1" arrows="1" fold="1" page="1" pageScale="1" pageWidth="827" pageHeight="1169" math="0" shadow="0">
      <root>
        <mxCell id="0" />
        <mxCell id="1" parent="0" />
        <mxCell id="zcsbuRpoyPlLziZU2ivR-1" value="aiWork&lt;div&gt;&lt;br&gt;&lt;/div&gt;&lt;div&gt;Orchastration&lt;/div&gt;" style="rounded=1;whiteSpace=wrap;html=1;" vertex="1" parent="1">
          <mxGeometry x="610" y="260" width="120" height="60" as="geometry" />
        </mxCell>
        <mxCell id="zcsbuRpoyPlLziZU2ivR-2" value="APM" style="rounded=1;whiteSpace=wrap;html=1;verticalAlign=top;" vertex="1" parent="1">
          <mxGeometry x="10" y="210" width="210" height="330" as="geometry" />
        </mxCell>
        <mxCell id="zcsbuRpoyPlLziZU2ivR-9" style="edgeStyle=orthogonalEdgeStyle;rounded=0;orthogonalLoop=1;jettySize=auto;html=1;entryX=0;entryY=0.5;entryDx=0;entryDy=0;" edge="1" parent="1" source="zcsbuRpoyPlLziZU2ivR-3" target="zcsbuRpoyPlLziZU2ivR-1">
          <mxGeometry relative="1" as="geometry" />
        </mxCell>
        <mxCell id="zcsbuRpoyPlLziZU2ivR-3" value="AgentInfo" style="rounded=1;whiteSpace=wrap;html=1;" vertex="1" parent="1">
          <mxGeometry x="55" y="280" width="120" height="60" as="geometry" />
        </mxCell>
        <mxCell id="zcsbuRpoyPlLziZU2ivR-6" style="edgeStyle=orthogonalEdgeStyle;rounded=0;orthogonalLoop=1;jettySize=auto;html=1;entryX=0.5;entryY=1;entryDx=0;entryDy=0;" edge="1" parent="1" source="zcsbuRpoyPlLziZU2ivR-4" target="zcsbuRpoyPlLziZU2ivR-5">
          <mxGeometry relative="1" as="geometry" />
        </mxCell>
        <mxCell id="zcsbuRpoyPlLziZU2ivR-11" style="edgeStyle=orthogonalEdgeStyle;rounded=0;orthogonalLoop=1;jettySize=auto;html=1;entryX=0.5;entryY=1;entryDx=0;entryDy=0;" edge="1" parent="1" source="zcsbuRpoyPlLziZU2ivR-4" target="zcsbuRpoyPlLziZU2ivR-1">
          <mxGeometry relative="1" as="geometry" />
        </mxCell>
        <mxCell id="zcsbuRpoyPlLziZU2ivR-4" value="APP" style="rounded=1;whiteSpace=wrap;html=1;" vertex="1" parent="1">
          <mxGeometry x="340" y="640" width="120" height="60" as="geometry" />
        </mxCell>
        <mxCell id="zcsbuRpoyPlLziZU2ivR-5" value="runAgent" style="rounded=1;whiteSpace=wrap;html=1;" vertex="1" parent="1">
          <mxGeometry x="340" y="430" width="120" height="30" as="geometry" />
        </mxCell>
        <mxCell id="zcsbuRpoyPlLziZU2ivR-10" value="3rd Party" style="rounded=1;whiteSpace=wrap;html=1;" vertex="1" parent="1">
          <mxGeometry x="354" y="90" width="120" height="60" as="geometry" />
        </mxCell>
        <mxCell id="zcsbuRpoyPlLziZU2ivR-12" value="Internet of Agent" style="text;html=1;align=center;verticalAlign=middle;resizable=0;points=[];autosize=1;strokeColor=none;fillColor=none;" vertex="1" parent="1">
          <mxGeometry x="160" y="30" width="110" height="30" as="geometry" />
        </mxCell>
        <mxCell id="zcsbuRpoyPlLziZU2ivR-13" value="3rd Party" style="rounded=1;whiteSpace=wrap;html=1;" vertex="1" parent="1">
          <mxGeometry x="354" y="10" width="120" height="60" as="geometry" />
        </mxCell>
        <mxCell id="zcsbuRpoyPlLziZU2ivR-14" value="3rd Party" style="rounded=1;whiteSpace=wrap;html=1;" vertex="1" parent="1">
          <mxGeometry x="354" y="180" width="120" height="60" as="geometry" />
        </mxCell>
        <mxCell id="zcsbuRpoyPlLziZU2ivR-15" value="3rd Party" style="rounded=1;whiteSpace=wrap;html=1;" vertex="1" parent="1">
          <mxGeometry x="360" y="280" width="120" height="60" as="geometry" />
        </mxCell>
        <mxCell id="zcsbuRpoyPlLziZU2ivR-16" value="AgentInfo" style="rounded=1;whiteSpace=wrap;html=1;" vertex="1" parent="1">
          <mxGeometry x="55" y="360" width="120" height="60" as="geometry" />
        </mxCell>
        <mxCell id="zcsbuRpoyPlLziZU2ivR-17" value="AgentInfo" style="rounded=1;whiteSpace=wrap;html=1;" vertex="1" parent="1">
          <mxGeometry x="55" y="440" width="120" height="60" as="geometry" />
        </mxCell>
        <mxCell id="8OEaSas1EnOPujuGbgsG-1" value="1. getDetail&lt;div&gt;2. run, getResult, clean&lt;/div&gt;&lt;div&gt;3. call run, getResult, clean&lt;/div&gt;" style="whiteSpace=wrap;html=1;" vertex="1" parent="1">
          <mxGeometry x="20" y="760" width="430" height="130" as="geometry" />
        </mxCell>
      </root>
    </mxGraphModel>
  </diagram>
  <diagram id="R_t7ZA--FjGn53iOUEJV" name="Agent Business">
    <mxGraphModel dx="2537" dy="921" grid="1" gridSize="10" guides="1" tooltips="1" connect="1" arrows="1" fold="1" page="1" pageScale="1" pageWidth="850" pageHeight="1100" math="0" shadow="0">
      <root>
        <mxCell id="0" />
        <mxCell id="1" parent="0" />
        <mxCell id="Cd_NfP0KwmBlouNwHGWQ-1" value="&amp;nbsp; &amp;nbsp; &amp;nbsp; Enterprise Environement" style="rounded=1;whiteSpace=wrap;html=1;arcSize=5;align=left;verticalAlign=top;" vertex="1" parent="1">
          <mxGeometry x="400" y="20" width="430" height="780" as="geometry" />
        </mxCell>
        <mxCell id="olD-KLltbN3UqaBUOm36-41" value="" style="ellipse;shape=cloud;whiteSpace=wrap;html=1;" parent="1" vertex="1">
          <mxGeometry x="-230" y="430" width="230" height="200" as="geometry" />
        </mxCell>
        <mxCell id="olD-KLltbN3UqaBUOm36-20" value="" style="ellipse;shape=cloud;whiteSpace=wrap;html=1;" parent="1" vertex="1">
          <mxGeometry x="50" y="80" width="310" height="260" as="geometry" />
        </mxCell>
        <mxCell id="olD-KLltbN3UqaBUOm36-10" style="edgeStyle=orthogonalEdgeStyle;rounded=0;orthogonalLoop=1;jettySize=auto;html=1;exitX=0.5;exitY=0;exitDx=0;exitDy=0;" parent="1" source="olD-KLltbN3UqaBUOm36-30" target="olD-KLltbN3UqaBUOm36-7" edge="1">
          <mxGeometry relative="1" as="geometry" />
        </mxCell>
        <mxCell id="olD-KLltbN3UqaBUOm36-11" value="publish" style="edgeLabel;html=1;align=center;verticalAlign=middle;resizable=0;points=[];" parent="olD-KLltbN3UqaBUOm36-10" vertex="1" connectable="0">
          <mxGeometry x="-0.1185" y="1" relative="1" as="geometry">
            <mxPoint x="-1" y="-21" as="offset" />
          </mxGeometry>
        </mxCell>
        <mxCell id="olD-KLltbN3UqaBUOm36-21" style="edgeStyle=orthogonalEdgeStyle;rounded=0;orthogonalLoop=1;jettySize=auto;html=1;entryX=0.5;entryY=1;entryDx=0;entryDy=0;" parent="1" source="GGueI6nedvyFWigDEUxN-1" target="olD-KLltbN3UqaBUOm36-18" edge="1">
          <mxGeometry relative="1" as="geometry" />
        </mxCell>
        <mxCell id="olD-KLltbN3UqaBUOm36-22" value="release" style="edgeLabel;html=1;align=center;verticalAlign=middle;resizable=0;points=[];" parent="olD-KLltbN3UqaBUOm36-21" vertex="1" connectable="0">
          <mxGeometry x="-0.4318" y="3" relative="1" as="geometry">
            <mxPoint x="1" as="offset" />
          </mxGeometry>
        </mxCell>
        <mxCell id="olD-KLltbN3UqaBUOm36-34" style="edgeStyle=orthogonalEdgeStyle;rounded=0;orthogonalLoop=1;jettySize=auto;html=1;entryX=0.5;entryY=1;entryDx=0;entryDy=0;" parent="1" source="GGueI6nedvyFWigDEUxN-1" target="olD-KLltbN3UqaBUOm36-30" edge="1">
          <mxGeometry relative="1" as="geometry" />
        </mxCell>
        <mxCell id="olD-KLltbN3UqaBUOm36-35" value="CLI publish" style="edgeStyle=orthogonalEdgeStyle;rounded=0;orthogonalLoop=1;jettySize=auto;html=1;" parent="1" source="GGueI6nedvyFWigDEUxN-1" target="olD-KLltbN3UqaBUOm36-30" edge="1">
          <mxGeometry relative="1" as="geometry" />
        </mxCell>
        <mxCell id="GGueI6nedvyFWigDEUxN-1" value="Develop&lt;div&gt;Agent&lt;/div&gt;" style="rounded=1;whiteSpace=wrap;html=1;" parent="1" vertex="1">
          <mxGeometry x="140" y="613" width="120" height="60" as="geometry" />
        </mxCell>
        <mxCell id="olD-KLltbN3UqaBUOm36-1" value="Devleop&lt;div&gt;Application&lt;/div&gt;" style="rounded=1;whiteSpace=wrap;html=1;" parent="1" vertex="1">
          <mxGeometry x="640" y="160" width="120" height="60" as="geometry" />
        </mxCell>
        <mxCell id="olD-KLltbN3UqaBUOm36-3" value="Agent&lt;div&gt;Developer&lt;/div&gt;" style="shape=umlActor;verticalLabelPosition=bottom;verticalAlign=top;html=1;outlineConnect=0;" parent="1" vertex="1">
          <mxGeometry x="180" y="680" width="30" height="60" as="geometry" />
        </mxCell>
        <mxCell id="olD-KLltbN3UqaBUOm36-4" value="Application&amp;nbsp;&lt;div&gt;Developer&lt;/div&gt;" style="shape=umlActor;verticalLabelPosition=bottom;verticalAlign=top;html=1;outlineConnect=0;" parent="1" vertex="1">
          <mxGeometry x="685" y="50" width="30" height="60" as="geometry" />
        </mxCell>
        <mxCell id="olD-KLltbN3UqaBUOm36-8" style="edgeStyle=orthogonalEdgeStyle;rounded=0;orthogonalLoop=1;jettySize=auto;html=1;entryX=0.5;entryY=1;entryDx=0;entryDy=0;exitX=0.5;exitY=0;exitDx=0;exitDy=0;strokeWidth=4;strokeColor=#000033;" parent="1" source="olD-KLltbN3UqaBUOm36-37" target="olD-KLltbN3UqaBUOm36-6" edge="1">
          <mxGeometry relative="1" as="geometry">
            <mxPoint x="540" y="520" as="sourcePoint" />
          </mxGeometry>
        </mxCell>
        <mxCell id="olD-KLltbN3UqaBUOm36-9" value="CLI:&amp;nbsp; apm install&amp;nbsp; AGENT_FOLDER" style="edgeLabel;html=1;align=center;verticalAlign=middle;resizable=0;points=[];" parent="olD-KLltbN3UqaBUOm36-8" vertex="1" connectable="0">
          <mxGeometry x="0.331" relative="1" as="geometry">
            <mxPoint y="37" as="offset" />
          </mxGeometry>
        </mxCell>
        <mxCell id="olD-KLltbN3UqaBUOm36-5" value="Agent&lt;div&gt;Admin&lt;/div&gt;" style="shape=umlActor;verticalLabelPosition=bottom;verticalAlign=top;html=1;outlineConnect=0;fillColor=#3333FF;" parent="1" vertex="1">
          <mxGeometry x="430" y="230" width="30" height="60" as="geometry" />
        </mxCell>
        <mxCell id="olD-KLltbN3UqaBUOm36-16" style="edgeStyle=orthogonalEdgeStyle;rounded=0;orthogonalLoop=1;jettySize=auto;html=1;entryX=0.5;entryY=1;entryDx=0;entryDy=0;" parent="1" source="olD-KLltbN3UqaBUOm36-6" target="olD-KLltbN3UqaBUOm36-1" edge="1">
          <mxGeometry relative="1" as="geometry" />
        </mxCell>
        <mxCell id="olD-KLltbN3UqaBUOm36-29" value="1. run&lt;div&gt;2. getResult&lt;/div&gt;&lt;div&gt;3. clean&lt;/div&gt;&lt;div&gt;4. search&lt;/div&gt;&lt;div&gt;4. detail&lt;/div&gt;" style="edgeLabel;html=1;align=center;verticalAlign=middle;resizable=0;points=[];" parent="olD-KLltbN3UqaBUOm36-16" vertex="1" connectable="0">
          <mxGeometry x="0.525" relative="1" as="geometry">
            <mxPoint x="1" as="offset" />
          </mxGeometry>
        </mxCell>
        <mxCell id="olD-KLltbN3UqaBUOm36-6" value="APM" style="rounded=1;whiteSpace=wrap;html=1;" parent="1" vertex="1">
          <mxGeometry x="480" y="355" width="120" height="60" as="geometry" />
        </mxCell>
        <mxCell id="olD-KLltbN3UqaBUOm36-12" style="edgeStyle=orthogonalEdgeStyle;rounded=0;orthogonalLoop=1;jettySize=auto;html=1;entryX=0;entryY=0.5;entryDx=0;entryDy=0;strokeWidth=7;strokeColor=#3333FF;" parent="1" source="olD-KLltbN3UqaBUOm36-7" target="olD-KLltbN3UqaBUOm36-6" edge="1">
          <mxGeometry relative="1" as="geometry" />
        </mxCell>
        <mxCell id="olD-KLltbN3UqaBUOm36-13" value="apm install&amp;nbsp; AGENT_ID" style="edgeLabel;html=1;align=center;verticalAlign=middle;resizable=0;points=[];" parent="olD-KLltbN3UqaBUOm36-12" vertex="1" connectable="0">
          <mxGeometry x="0.36" relative="1" as="geometry">
            <mxPoint x="-11" y="-20" as="offset" />
          </mxGeometry>
        </mxCell>
        <mxCell id="olD-KLltbN3UqaBUOm36-7" value="Agent&lt;div&gt;Store&lt;/div&gt;" style="rounded=1;whiteSpace=wrap;html=1;verticalAlign=top;" parent="1" vertex="1">
          <mxGeometry x="110" y="150" width="180" height="130" as="geometry" />
        </mxCell>
        <mxCell id="olD-KLltbN3UqaBUOm36-19" style="edgeStyle=orthogonalEdgeStyle;rounded=0;orthogonalLoop=1;jettySize=auto;html=1;entryX=0.5;entryY=0;entryDx=0;entryDy=0;exitX=0.5;exitY=0;exitDx=0;exitDy=0;" parent="1" source="olD-KLltbN3UqaBUOm36-18" target="olD-KLltbN3UqaBUOm36-6" edge="1">
          <mxGeometry relative="1" as="geometry">
            <Array as="points">
              <mxPoint x="-110" y="70" />
              <mxPoint x="540" y="70" />
            </Array>
          </mxGeometry>
        </mxCell>
        <mxCell id="olD-KLltbN3UqaBUOm36-27" value="Proxy&lt;div&gt;&lt;br&gt;&lt;/div&gt;&lt;div&gt;1. run&lt;div&gt;2. getResult&lt;/div&gt;&lt;div&gt;3. clean&lt;/div&gt;&lt;/div&gt;" style="edgeLabel;html=1;align=center;verticalAlign=middle;resizable=0;points=[];" parent="olD-KLltbN3UqaBUOm36-19" vertex="1" connectable="0">
          <mxGeometry x="-0.6675" y="2" relative="1" as="geometry">
            <mxPoint x="-3" y="-24" as="offset" />
          </mxGeometry>
        </mxCell>
        <mxCell id="olD-KLltbN3UqaBUOm36-18" value="&amp;nbsp;Agent&lt;div&gt;Server&lt;/div&gt;" style="rounded=1;whiteSpace=wrap;html=1;verticalAlign=top;" parent="1" vertex="1">
          <mxGeometry x="-170" y="480" width="120" height="100" as="geometry" />
        </mxCell>
        <mxCell id="olD-KLltbN3UqaBUOm36-24" value="remote&lt;div&gt;Agent&lt;/div&gt;" style="ellipse;whiteSpace=wrap;html=1;fillColor=#fff2cc;strokeColor=#d6b656;" parent="1" vertex="1">
          <mxGeometry x="122" y="204" width="70" height="40" as="geometry" />
        </mxCell>
        <mxCell id="olD-KLltbN3UqaBUOm36-25" value="local&lt;div&gt;Agent&lt;/div&gt;" style="ellipse;whiteSpace=wrap;html=1;fillColor=#1ba1e2;fontColor=#ffffff;strokeColor=#006EAF;" parent="1" vertex="1">
          <mxGeometry x="202" y="204" width="60" height="40" as="geometry" />
        </mxCell>
        <mxCell id="olD-KLltbN3UqaBUOm36-30" value="APM" style="rounded=1;whiteSpace=wrap;html=1;" parent="1" vertex="1">
          <mxGeometry x="140" y="360" width="120" height="60" as="geometry" />
        </mxCell>
        <mxCell id="olD-KLltbN3UqaBUOm36-33" value="Agent&lt;div&gt;Developer&lt;/div&gt;" style="shape=umlActor;verticalLabelPosition=bottom;verticalAlign=top;html=1;outlineConnect=0;" parent="1" vertex="1">
          <mxGeometry x="525" y="680" width="30" height="60" as="geometry" />
        </mxCell>
        <mxCell id="olD-KLltbN3UqaBUOm36-37" value="Develop&lt;div&gt;Agent&lt;/div&gt;" style="rounded=1;whiteSpace=wrap;html=1;" parent="1" vertex="1">
          <mxGeometry x="480" y="613" width="120" height="60" as="geometry" />
        </mxCell>
        <mxCell id="olD-KLltbN3UqaBUOm36-38" value="Agent Service" style="rounded=1;whiteSpace=wrap;html=1;verticalAlign=top;" parent="1" vertex="1">
          <mxGeometry x="590" y="420" width="120" height="70" as="geometry" />
        </mxCell>
        <mxCell id="olD-KLltbN3UqaBUOm36-26" value="agent&lt;div&gt;instance&lt;/div&gt;" style="ellipse;whiteSpace=wrap;html=1;fillColor=#1ba1e2;fontColor=#ffffff;strokeColor=#006EAF;" parent="1" vertex="1">
          <mxGeometry x="620" y="445" width="60" height="40" as="geometry" />
        </mxCell>
        <mxCell id="olD-KLltbN3UqaBUOm36-39" value="remote agent&lt;div&gt;instance&lt;/div&gt;" style="ellipse;whiteSpace=wrap;html=1;fillColor=#fff2cc;strokeColor=#d6b656;" parent="1" vertex="1">
          <mxGeometry x="-145" y="525" width="70" height="40" as="geometry" />
        </mxCell>
      </root>
    </mxGraphModel>
  </diagram>
  <diagram id="uw-UvZOwWIIRMQ8wgZiG" name="Page-5">
    <mxGraphModel dx="1434" dy="783" grid="1" gridSize="10" guides="1" tooltips="1" connect="1" arrows="1" fold="1" page="1" pageScale="1" pageWidth="850" pageHeight="1100" math="0" shadow="0">
      <root>
        <mxCell id="0" />
        <mxCell id="1" parent="0" />
        <mxCell id="hRTCW-eUWfNfToQmhXas-5" value="Lifeline2" style="shape=umlLifeline;perimeter=lifelinePerimeter;whiteSpace=wrap;html=1;container=1;dropTarget=0;collapsible=0;recursiveResize=0;outlineConnect=0;portConstraint=eastwest;newEdgeStyle={&quot;edgeStyle&quot;:&quot;elbowEdgeStyle&quot;,&quot;elbow&quot;:&quot;vertical&quot;,&quot;curved&quot;:0,&quot;rounded&quot;:0};" vertex="1" parent="1">
          <mxGeometry x="440" y="120" width="100" height="300" as="geometry" />
        </mxCell>
        <mxCell id="hRTCW-eUWfNfToQmhXas-6" value="" style="html=1;points=[[0,0,0,0,5],[0,1,0,0,-5],[1,0,0,0,5],[1,1,0,0,-5]];perimeter=orthogonalPerimeter;outlineConnect=0;targetShapes=umlLifeline;portConstraint=eastwest;newEdgeStyle={&quot;curved&quot;:0,&quot;rounded&quot;:0};fillColor=#808080;" vertex="1" parent="hRTCW-eUWfNfToQmhXas-5">
          <mxGeometry x="45" y="90" width="10" height="120" as="geometry" />
        </mxCell>
        <mxCell id="hRTCW-eUWfNfToQmhXas-7" value="Lifeline1" style="shape=umlLifeline;perimeter=lifelinePerimeter;whiteSpace=wrap;html=1;container=1;dropTarget=0;collapsible=0;recursiveResize=0;outlineConnect=0;portConstraint=eastwest;newEdgeStyle={&quot;edgeStyle&quot;:&quot;elbowEdgeStyle&quot;,&quot;elbow&quot;:&quot;vertical&quot;,&quot;curved&quot;:0,&quot;rounded&quot;:0};" vertex="1" parent="1">
          <mxGeometry x="230" y="120" width="100" height="300" as="geometry" />
        </mxCell>
        <mxCell id="hRTCW-eUWfNfToQmhXas-8" value="" style="html=1;points=[[0,0,0,0,5],[0,1,0,0,-5],[1,0,0,0,5],[1,1,0,0,-5]];perimeter=orthogonalPerimeter;outlineConnect=0;targetShapes=umlLifeline;portConstraint=eastwest;newEdgeStyle={&quot;curved&quot;:0,&quot;rounded&quot;:0};" vertex="1" parent="hRTCW-eUWfNfToQmhXas-7">
          <mxGeometry x="45" y="90" width="10" height="120" as="geometry" />
        </mxCell>
        <mxCell id="hRTCW-eUWfNfToQmhXas-14" value="Actor" style="shape=umlActor;verticalLabelPosition=bottom;verticalAlign=top;html=1;" vertex="1" parent="1">
          <mxGeometry x="265" y="50" width="30" height="60" as="geometry" />
        </mxCell>
        <mxCell id="hRTCW-eUWfNfToQmhXas-15" value="" style="endArrow=open;startArrow=none;endFill=0;startFill=0;endSize=8;html=1;verticalAlign=bottom;labelBackgroundColor=none;strokeWidth=1;rounded=0;" edge="1" parent="1" source="hRTCW-eUWfNfToQmhXas-7" target="hRTCW-eUWfNfToQmhXas-5">
          <mxGeometry width="160" relative="1" as="geometry">
            <mxPoint x="280" y="240" as="sourcePoint" />
            <mxPoint x="440" y="240" as="targetPoint" />
          </mxGeometry>
        </mxCell>
        <mxCell id="hRTCW-eUWfNfToQmhXas-16" value="" style="endArrow=open;startArrow=none;endFill=0;startFill=0;endSize=8;html=1;verticalAlign=bottom;labelBackgroundColor=none;strokeWidth=1;rounded=0;exitX=0;exitY=1;exitDx=0;exitDy=-5;exitPerimeter=0;" edge="1" parent="1" source="hRTCW-eUWfNfToQmhXas-6" target="hRTCW-eUWfNfToQmhXas-7">
          <mxGeometry width="160" relative="1" as="geometry">
            <mxPoint x="530" y="250" as="sourcePoint" />
            <mxPoint x="690" y="250" as="targetPoint" />
          </mxGeometry>
        </mxCell>
      </root>
    </mxGraphModel>
  </diagram>
</mxfile>
